PathFileType	4	(X/Y/Z)	path1_02_0-1346.trc
DataRate	CameraRate	NumFrames	NumMarkers	Units	OrigDataRate	OrigDataStartFrame	OrigNumFrames
30	30	6	22	m	30	504	1346
Frame#	Time	Hip			RHip			RKnee			RAnkle			RBigToe			RSmallToe			RHeel			LHip			LKnee			LAnkle			LBigToe			LSmallToe			LHeel			Neck			Head			Nose			RShoulder			RElbow			RWrist			LShoulder			LElbow			LWrist		
		X1	Y1	Z1	X2	Y2	Z2	X3	Y3	Z3	X4	Y4	Z4	X5	Y5	Z5	X6	Y6	Z6	X7	Y7	Z7	X8	Y8	Z8	X9	Y9	Z9	X10	Y10	Z10	X11	Y11	Z11	X12	Y12	Z12	X13	Y13	Z13	X14	Y14	Z14	X15	Y15	Z15	X16	Y16	Z16	X17	Y17	Z17	X18	Y18	Z18	X19	Y19	Z19	X20	Y20	Z20	X21	Y21	Z21	X22	Y22	Z22
505	16.833333333333332	-1.6483772063517943	0.8170490917663851	0.2597476475411336	-1.651781758264848	0.8020623328188096	0.34402334592079553	-1.6737189589835526	0.46940543413627883	0.3093838419351416	-1.706047803457224	0.1136691345096612	0.3247675063290654	-1.546195153602026	0.030603525757656055	0.3312958956200979	-1.5766987620511188	0.028091888225299923	0.3901751998508883	-1.746396874808016	0.05332422506186784	0.3245936950190826	-1.6377819305327972	0.793844900249187	0.19002604714089888	-1.6588595887126467	0.4545054604339752	0.20400549634483767	-1.6822077223880847	0.10572448781062564	0.1797918895455637	-1.53793782707378	0.011904049394662287	0.1359268054012998	-1.5544026471523453	0.022352811878131755	0.09249319552454124	-1.7546408199355104	0.022805459712993272	0.1896644213531705	-1.629817421990298	1.4500891314217867	0.2223249095734828	-1.556695096823928	1.7212193175137125	0.2579567616613601	-1.498890325196818	1.5795590335856207	0.245533089521949	-1.67898445545199	1.3539982559649628	0.3710318069785084	-1.6700455841346842	1.0600490860518	0.3991810437584625	-1.5780263449527496	0.8645676097926615	0.4634628966642079	-1.6589008102158516	1.330717182965772	0.12836017052533932	-1.6498674412117562	1.0357889834354945	0.1114462355712891	-1.5388286310524655	0.8579909226700055	0.07219224827759134
506	16.866666666666667	-1.6485223418494526	0.8172462379951586	0.2593505748845602	-1.6520677373727832	0.8018640951385273	0.34392414263982485	-1.6736708976182684	0.46957729417984645	0.3090747026699358	-1.7058104910437493	0.11373964870151473	0.32479684570074246	-1.546662240947054	0.030215572050232578	0.330842570686731	-1.5771474981353018	0.02821261724271266	0.38987201972102914	-1.7461457487030136	0.05315534001429857	0.3255599352010371	-1.6377336803294789	0.7940013535850786	0.18972137505067369	-1.6595869747253695	0.4546367776031612	0.20481165147892183	-1.6853470148220582	0.10501101276971368	0.1772086574255905	-1.5381263647754704	0.01222385013352945	0.13479114299418257	-1.556950825467515	0.021512948314313565	0.09047693759552886	-1.7546056550737368	0.02249429667646327	0.18974098020101585	-1.6299271308863332	1.4500670906260948	0.22264644436004968	-1.5570069787891716	1.7212036178350707	0.2574938671399074	-1.499154627247668	1.5797036399044513	0.24538592114582358	-1.6786608204716844	1.3536935956166611	0.3715424845266497	-1.6701082254574748	1.0604227461922235	0.39907704891252577	-1.5779918183414656	0.8642266025957798	0.4638025577213318	-1.6589956838330264	1.3312281828478365	0.1246037825534592	-1.6498355579037904	1.0356819176225618	0.11135575217129759	-1.5388146986605793	0.8580037847126628	0.07234973882864433
507	16.9	-1.6486597467995314	0.8173689622806694	0.2590688990227278	-1.652410773098574	0.8016682689109891	0.3435421290541295	-1.6736055196141983	0.4695603431469553	0.30862820898890364	-1.705617703701785	0.11446790623679833	0.3236665982625302	-1.546947608536378	0.029903547633284587	0.3306902064772632	-1.5773092364253207	0.028420809151554465	0.38981784629457705	-1.746090671451461	0.05301107879834949	0.32594545851342943	-1.6376840613940022	0.7942342464039313	0.18906569538631762	-1.6593438533355245	0.4544615721460237	0.20448110551399473	-1.6887404767012266	0.10439068172296523	0.17431889991319158	-1.537891116541045	0.012367180268065638	0.13267310165702245	-1.5582475756508982	0.021080260686225406	0.08924534508077685	-1.7545483570361509	0.02228983651739895	0.18959045906981548	-1.6301672209480127	1.4499361117144307	0.22285444638562732	-1.5574233854642798	1.7212533657492177	0.25748069331691437	-1.499403450668278	1.5799724747774595	0.24559155957921103	-1.6784696245923787	1.3534088103122952	0.37184377456253964	-1.6701543203517124	1.0604581714804702	0.39889250140003585	-1.5778762267263218	0.8639680329311494	0.46400238300933894	-1.659043928438385	1.3322097583589927	0.11962704663582374	-1.649976061330423	1.0356817610026097	0.11124046040488035	-1.538773321669956	0.8579720888870115	0.07253030285068476
508	16.933333333333334	-1.6486512665997004	0.8174207189960243	0.2589345066562447	-1.6526548841186428	0.8013944395247553	0.34297593297872886	-1.673569612237887	0.46932028897689326	0.30805187757923624	-1.705538528339226	0.11530117195359914	0.32207226987426557	-1.547021344104097	0.029740861668568465	0.3307458205376785	-1.5772135833275764	0.028679443067344317	0.38993371547823674	-1.746198218358681	0.05282384304100434	0.3258156018215594	-1.6376376198610794	0.7943583728650186	0.18828371552162348	-1.6585004047803709	0.45405807616566307	0.2034098263876172	-1.6909586406189379	0.10408910175999148	0.17226664655976137	-1.5373874528786553	0.012407930244658747	0.1305587531154864	-1.559015767808999	0.02082225122435942	0.08824722546140511	-1.754473374365216	0.022147585005888776	0.18931956616069492	-1.6304656609927832	1.449792628948449	0.22284090927012087	-1.5580449659168585	1.721174735027615	0.2575426006810474	-1.4995781238178987	1.580303296669069	0.24602904941312714	-1.678422819825566	1.3531650219325355	0.37184137633757464	-1.6701066440239138	1.0601212802389572	0.3985928192848664	-1.5776760239797112	0.8638188358595322	0.4640305190111347	-1.6590850084720812	1.333353659181292	0.11499297017007604	-1.6502699093618893	1.03575202679872	0.11120171369071773	-1.5386933729914292	0.8579628216971794	0.07265272174955065
509	16.966666666666665	-1.6483835451585913	0.8174231843525145	0.25894232469367784	-1.6526860402864783	0.8009201160787193	0.3423338691127191	-1.6736168839357122	0.46880973848264434	0.3073240932126604	-1.705568066813958	0.11591074446221017	0.32055440298557414	-1.5469277660333396	0.029641903322837705	0.33082032057993455	-1.5769618178787765	0.02893686898968559	0.3901029947908994	-1.7462920884755149	0.052598910433200884	0.32540639530631815	-1.6375855284240097	0.7941770807328875	0.18758313476445831	-1.657519485331734	0.45345773667306993	0.20205933338961807	-1.6908140248509655	0.10421330929834696	0.17215114186771174	-1.5367578030428124	0.012334787401625105	0.12912050529552208	-1.5596233472932601	0.020611885567787445	0.08729663348252141	-1.7543885228000355	0.02198359771760382	0.1890074563618123	-1.630732855098951	1.4497555812948293	0.22256265309982654	-1.5590281615423078	1.7208049843682929	0.2574884123161308	-1.4996786848852222	1.5807622557319017	0.24662720903136215	-1.6785008381496989	1.3529781344547014	0.3715026331013239	-1.6699333332340711	1.0594941750652813	0.39815061778177285	-1.57743400819761	0.8637544160087703	0.46388707138620927	-1.6592784843879849	1.3341840272315209	0.11336168465830725	-1.6507064018581845	1.0358775551232817	0.11134962149002799	-1.5386243451184243	0.8580197328933539	0.07269515894929823
510	17.0	-1.6478628529558388	0.8174027791025812	0.25906551440748465	-1.652518032048929	0.8002648016003905	0.34172352259857713	-1.6737651950946468	0.4680718430537136	0.3064775092070191	-1.7056708533299705	0.11623022412656048	0.31933898937334065	-1.546723494053125	0.02948000434835866	0.3307906378838261	-1.5766676595197613	0.02913540357071646	0.39020645401495796	-1.74627331998519	0.05236537434012546	0.32492585065192303	-1.637506360990847	0.7936908899083625	0.18707131613194836	-1.6564808843069034	0.45254099655548385	0.20045259861099723	-1.688390858701088	0.10465829574322846	0.17398759803914216	-1.5360718761975967	0.012102296616294929	0.12865139304431922	-1.5598023701851558	0.020551956269724787	0.0866999751943968	-1.7542797152755225	0.02172911769257398	0.1887036532936357	-1.6309155851262493	1.449863894696246	0.2221085081213137	-1.5603855210667068	1.7201777922727701	0.25735261489438294	-1.499748073954526	1.5814304447749266	0.24735840773761508	-1.6786954319697769	1.3528832579682222	0.37089112645783284	-1.669674423278084	1.0587446781551526	0.39757681198143585	-1.5772255032854283	0.8637079148043836	0.4635670882991191	-1.65970687983543	1.3344012881156941	0.11611878655143595	-1.6512307338467682	1.0360341537900488	0.11167508001778574	-1.5386195088468317	0.8581123148443669	0.07267375013089243
